<?xml version="1.0" encoding="UTF-8"?>
<svg version="1.1" xmlns="http://www.w3.org/2000/svg" width="1018" height="731">
<path d="M0 0 C5.130435 3.8023717 9.1345473 7.24083344 12.53515625 12.69140625 C12.90487549 13.28268311 13.27459473 13.87395996 13.65551758 14.4831543 C23.6560323 30.64558199 32.91640693 47.26201351 42.16796875 63.859375 C45.2528428 69.38768751 48.38429915 74.88799722 51.53515625 80.37890625 C57.6857651 91.10559268 63.72316407 101.89449316 69.75292969 112.68945312 C73.25389537 118.95474295 76.76221045 125.21592309 80.27148438 131.4765625 C83.27142858 136.82999828 86.26439468 142.18715914 89.24609375 147.55078125 C89.8596875 148.65228516 90.47328125 149.75378906 91.10546875 150.88867188 C92.26145515 152.96419291 93.41530164 155.04090813 94.56640625 157.11914062 C97.42255419 162.24157986 100.3751197 167.27718709 103.47265625 172.2578125 C107.59565665 178.90650829 111.40769203 185.70378312 115.16015625 192.56640625 C115.85424935 193.83008544 116.5485073 195.0936741 117.24291992 196.35717773 C122.40722765 205.76610362 127.51446297 215.20580852 132.57421875 224.67138672 C135.23411444 229.64179804 137.92020273 234.58993769 140.7109375 239.48828125 C150.26021969 256.26371284 155.74873745 271.81100025 151.83984375 291.35546875 C150.93952151 294.04130402 149.89682117 296.39812298 148.53515625 298.87890625 C147.91640625 300.05259766 147.91640625 300.05259766 147.28515625 301.25 C140.69045702 312.35982 129.47795522 317.80836042 118.16015625 323.06640625 C116.78538826 323.71696115 115.4111296 324.36859334 114.03735352 325.02124023 C110.54443009 326.67608765 107.04402694 328.31429459 103.53997803 329.94543457 C101.64102381 330.82961291 99.74335938 331.7164888 97.84619141 332.60449219 C90.93130317 335.83830137 84.00427601 339.04519636 77.07275391 342.24316406 C70.92761506 345.08460162 64.79412832 347.9509626 58.66015625 350.81640625 C56.76820288 351.6999573 54.8762211 352.58344751 52.98423767 353.4669342 C51.7206001 354.05701715 50.4569791 354.6471356 49.19337463 355.23728943 C44.85254402 357.26444686 40.5105331 359.28905963 36.16796875 361.3125 C22.17605149 367.83336999 8.19938562 374.38561197 -5.76452637 380.96624756 C-15.3174951 385.46734653 -24.88225097 389.94113973 -34.46484375 394.37890625 C-44.73217434 399.13421591 -54.97884044 403.93162098 -65.21484375 408.75390625 C-65.92795715 409.08983795 -66.64107056 409.42576965 -67.37579346 409.7718811 C-70.25983452 411.13052102 -73.14386273 412.48918819 -76.02786255 413.84791565 C-83.62839599 417.4281231 -91.23298827 420.99965267 -98.83984375 424.56640625 C-99.50371094 424.87771484 -100.16757812 425.18902344 -100.8515625 425.50976562 C-109.96204568 429.78085959 -119.08443135 434.02554766 -128.21484375 438.25390625 C-139.76875735 443.60509626 -151.28426825 449.03499294 -162.79376221 454.48086548 C-172.70888647 459.1715431 -182.63586539 463.83360422 -192.58984375 468.44140625 C-214.34609236 478.51658559 -236.04333401 488.71251077 -257.62524414 499.15625 C-266.70074269 503.5371045 -275.8366866 507.78024459 -284.98583984 512.00463867 C-294.1458914 516.24318527 -303.2409923 520.60681862 -312.32470703 525.00610352 C-320.29358708 528.85647681 -328.30390499 532.60824538 -336.33984375 536.31640625 C-346.58368562 541.04383851 -356.75974068 545.89381707 -366.90670776 550.82421875 C-376.78581059 555.62175962 -386.73152764 560.26017765 -396.71582031 564.83447266 C-401.96993771 567.24714387 -407.18812543 569.69231003 -412.33984375 572.31640625 C-419.58282393 576.0047135 -426.96744355 579.37628107 -434.34710693 582.78097534 C-443.59984097 587.05299411 -452.79814523 591.42547517 -461.96484375 595.87890625 C-471.42245475 600.47257582 -480.91713598 604.97453948 -490.46484375 609.37890625 C-503.74259073 615.50623471 -516.9069861 621.85216731 -530.06396484 628.23291016 C-537.97459114 632.06158514 -545.90706823 635.84454546 -553.84082031 639.625 C-556.42432549 640.85954434 -559.00354696 642.10266499 -561.58203125 643.34765625 C-597.39369653 660.57669684 -597.39369653 660.57669684 -617.9453125 656.125 C-620.55534494 655.18627183 -622.98898628 654.12546167 -625.46484375 652.87890625 C-626.16351562 652.57855469 -626.8621875 652.27820313 -627.58203125 651.96875 C-633.07833805 649.4986199 -638.07539602 646.00417425 -642.46484375 641.87890625 C-642.46484375 641.21890625 -642.46484375 640.55890625 -642.46484375 639.87890625 C-643.12484375 639.87890625 -643.78484375 639.87890625 -644.46484375 639.87890625 C-651.10276035 632.41823677 -655.10802559 622.93831987 -659.33984375 614.00390625 C-660.04824551 612.5246622 -660.75715284 611.04566016 -661.46655273 609.56689453 C-666.32333772 599.41353116 -671.0134327 589.19126652 -675.56494141 578.89746094 C-677.76225775 573.96870034 -680.08146829 569.09538155 -682.37304688 564.20996094 C-689.87686226 548.18884527 -697.28092817 532.12485541 -704.58374023 516.0112915 C-709.82752201 504.4439059 -715.13321057 492.90603969 -720.46484375 481.37890625 C-725.98700596 469.43974652 -731.47528784 457.48659589 -736.90234375 445.50390625 C-742.50293291 433.13963786 -748.18623255 420.81516772 -753.90234375 408.50390625 C-765.29708058 383.95281855 -776.63743349 359.3812021 -787.58984375 334.62890625 C-787.89635864 333.93805939 -788.20287354 333.24721252 -788.51867676 332.53543091 C-804.55553744 296.3513806 -804.55553744 296.3513806 -799.83984375 283.69140625 C-797.67809792 278.88076061 -794.83668071 274.90825142 -791.46484375 270.87890625 C-790.99046875 270.28335937 -790.51609375 269.6878125 -790.02734375 269.07421875 C-749.99204351 220.11800922 -673.64494274 195.41125619 -616.46484375 172.87890625 C-615.6950116 172.57531189 -614.92517944 172.27171753 -614.13201904 171.95892334 C-586.44303589 161.05307486 -558.50801242 150.83464466 -530.46484375 140.87890625 C-528.96476776 140.34623138 -528.96476776 140.34623138 -527.43438721 139.80279541 C-496.80058884 128.93815647 -465.9874821 118.73457133 -434.98156738 108.98626709 C-431.2922707 107.82456572 -427.60443435 106.6582927 -423.91699219 105.49072266 C-388.11486254 94.15771147 -352.22500879 83.22326929 -316.1104126 72.92004395 C-312.34152446 71.84368751 -308.57370315 70.7636421 -304.80615234 69.68261719 C-278.33904415 62.09077301 -251.8478882 54.59223306 -225.28125 47.35546875 C-224.43086655 47.12379942 -223.58048309 46.89213009 -222.70433044 46.65344048 C-214.39026615 44.38938636 -206.07458571 42.13142682 -197.75514793 39.88719463 C-162.25106108 30.30676577 -126.55075039 20.60650001 -91.96484375 8.06640625 C-87.1350245 6.32732447 -82.30150413 4.5988566 -77.46484375 2.87890625 C-76.7357782 2.61881775 -76.00671265 2.35872925 -75.2555542 2.09075928 C-70.45135985 0.38117399 -65.63592587 -1.29038391 -60.80566406 -2.92489624 C-59.23648238 -3.4610745 -57.67066243 -4.00722352 -56.10888672 -4.56460571 C-36.63026393 -11.4981108 -17.73429355 -11.81372569 0 0 Z M-74.11844254 15.45313644 C-77.04417835 16.45363725 -79.97160457 17.44914162 -82.8990202 18.44471455 C-100.03369418 24.2726862 -117.14300629 30.17116877 -134.2171936 36.17422485 C-151.91521639 42.39400585 -169.68940314 48.38511922 -187.46484375 54.37890625 C-206.36945764 60.75356372 -225.2656946 67.1442829 -244.08984375 73.75390625 C-264.39370005 80.88196553 -284.76299662 87.81104132 -305.14309692 94.7177124 C-314.88850753 98.02072036 -324.62861293 101.33920519 -334.36834717 104.65890503 C-397.36456818 126.12614011 -460.42941819 147.39303722 -523.5 168.640625 C-525.4511221 169.29795516 -527.40224311 169.95528853 -529.35336304 170.61262512 C-530.31865622 170.93783362 -531.28394939 171.26304213 -532.27849388 171.59810543 C-536.16609458 172.90784878 -540.05369096 174.21760492 -543.94128418 175.52737045 C-545.87153542 176.17767947 -547.80179257 176.82797095 -549.73205566 177.47824478 C-572.84975752 185.26628708 -595.96244845 193.06759842 -619.04818726 200.94998169 C-630.16905424 204.74681412 -641.30080112 208.50720603 -652.45306396 212.21084595 C-658.29608766 214.15179097 -664.13674695 216.09983896 -669.97705078 218.0489502 C-671.72658741 218.63261553 -673.4762756 219.21582663 -675.22607422 219.79870605 C-681.21833251 221.79537155 -687.20706133 223.80216271 -693.19204712 225.82052612 C-695.14181467 226.47645186 -697.09261986 227.12930247 -699.04452515 227.77883911 C-701.77475624 228.68796984 -704.50096758 229.6083276 -707.2265625 230.53125 C-708.02815796 230.79541718 -708.82975342 231.05958435 -709.65563965 231.33175659 C-721.43426538 235.35832594 -731.97900803 241.5160619 -737.90234375 252.81640625 C-743.78065986 265.85942899 -744.2463061 279.35428302 -739.46484375 292.87890625 C-734.16780174 306.84247484 -728.19540521 320.5046474 -722.08984375 334.12890625 C-721.211563 336.09631518 -720.3335575 338.06384701 -719.45581055 340.03149414 C-712.65359237 355.26865781 -705.80732691 370.48614141 -698.95011902 385.69862366 C-694.16580997 396.31302095 -689.40420112 406.93744547 -684.65234375 417.56640625 C-683.93579735 419.16886677 -683.21924467 420.77132447 -682.50268555 422.3737793 C-680.20046599 427.52260085 -677.89858146 432.67157218 -675.59686279 437.82061768 C-667.72178292 455.43634048 -659.78791837 473.0247886 -651.8269043 490.60180664 C-647.83134175 499.42539634 -643.84314076 508.25212844 -639.87890625 517.08984375 C-632.27683784 534.03498617 -624.62664488 550.95519373 -616.83984375 567.81640625 C-616.47365936 568.60953217 -616.10747498 569.40265808 -615.73019409 570.21981812 C-613.99462905 573.97663083 -612.25478972 577.73137337 -610.50732422 581.48266602 C-609.09185711 584.52141627 -607.6926077 587.56707476 -606.30126953 590.61694336 C-605.59553534 592.14964946 -604.88964876 593.68228541 -604.18359375 595.21484375 C-603.86675629 595.9168541 -603.54991882 596.61886444 -603.22348022 597.34214783 C-598.3725702 607.80965246 -589.80870884 614.06375796 -579.18359375 618.13671875 C-564.1499056 623.06749261 -554.80869266 618.66107047 -540.96484375 612.37890625 C-539.71041136 611.81272909 -538.45593394 611.24665168 -537.20141602 610.68066406 C-511.39950018 599.01350305 -485.75630768 586.99591247 -460.16333008 574.87866211 C-448.89160228 569.54308291 -437.59013252 564.27481856 -426.2734375 559.03515625 C-419.84052848 556.05628866 -413.41768193 553.05616081 -406.99591064 550.05337524 C-395.5833259 544.71736372 -384.15195048 539.42344413 -372.70904541 534.152771 C-359.37325909 528.01011821 -346.05649612 521.8306313 -332.77734375 515.56640625 C-315.12453024 507.24004659 -297.43809642 498.98861305 -279.6953125 490.85546875 C-278.9353447 490.50706436 -278.17537689 490.15865997 -277.39237976 489.79969788 C-276.62360001 489.4472551 -275.85482025 489.09481232 -275.06274414 488.73168945 C-273.48844392 488.00992858 -271.91414379 487.28816751 -270.33984375 486.56640625 C-269.55753387 486.20783539 -268.775224 485.84926453 -267.96920776 485.47982788 C-255.98091169 479.98265554 -244.03618962 474.39874221 -232.11380005 468.76025391 C-220.84796203 463.43513975 -209.52543915 458.2457567 -198.17028809 453.11419678 C-188.81012193 448.88231459 -179.51159155 444.54779503 -170.26489258 440.07202148 C-162.05950878 436.11945895 -153.76658146 432.37307086 -145.46484375 428.62890625 C-134.40641834 423.63984952 -123.43122404 418.50982566 -112.52734375 413.19140625 C-99.96887962 407.0668409 -87.33242386 401.13797778 -74.62548828 395.32617188 C-69.27494125 392.87614539 -63.93261858 390.40832405 -58.58984375 387.94140625 C-56.97408447 387.19588501 -56.97408447 387.19588501 -55.32568359 386.43530273 C-46.48442237 382.35436615 -37.65265939 378.25314311 -28.82275391 374.14770508 C-21.98384884 370.97020592 -15.1394282 367.80506289 -8.2890625 364.65234375 C8.72079666 356.82208096 25.70345705 348.9415716 42.62615967 340.92446899 C51.94950445 336.50774325 61.28559292 332.12377761 70.66015625 327.81640625 C80.22893071 323.41597033 89.78124327 318.98137099 99.31707764 314.51004028 C100.81609757 313.80762919 102.31563548 313.10632228 103.81573486 312.40621948 C124.44044698 303.92635902 124.44044698 303.92635902 137.8515625 287.3203125 C140.36313545 278.35040911 140.33475938 268.18067451 136.5078125 259.56640625 C135.34579189 257.4528949 135.34579189 257.4528949 133.53515625 254.87890625 C129.7886448 258.18645314 129.20430241 262.07679851 128.53515625 266.87890625 C128.56867187 268.07 128.6021875 269.26109375 128.63671875 270.48828125 C128.59317602 274.82513742 128.23078377 277.87265678 126.53515625 281.87890625 C122.24134819 285.85060482 116.14706911 287.55897389 110.77685547 289.59716797 C105.12372779 291.83236305 99.63435892 294.43488584 94.11746216 296.98327637 C90.58738621 298.60756761 87.04475665 300.20405943 83.50390625 301.8046875 C77.30535921 304.61167269 71.12013645 307.44655768 64.94140625 310.296875 C62.57307855 311.38737182 60.2046315 312.4776091 57.83618164 313.56784058 C56.31898055 314.26746345 54.80252281 314.96870091 53.28686523 315.67166138 C30.76743965 326.1143393 30.76743965 326.1143393 23.53515625 323.87890625 C18.21482424 320.73368118 14.25682509 316.7635966 10.53515625 311.87890625 C9.54515625 312.37390625 9.54515625 312.37390625 8.53515625 312.87890625 C7.88046869 315.21197464 7.31626675 317.51794304 6.78515625 319.87890625 C4.31448841 329.86910069 -0.12191464 336.74889735 -8.46484375 342.87890625 C-11.60143829 344.71451676 -14.85067564 346.23939856 -18.15234375 347.75390625 C-19.13726807 348.21531006 -20.12219238 348.67671387 -21.13696289 349.15209961 C-33.27003991 354.79297263 -45.52482119 360.17138609 -57.76171875 365.58203125 C-67.57275098 369.92034317 -77.36777257 374.29375073 -87.15234375 378.69140625 C-87.97995209 379.06329071 -88.80756042 379.43517517 -89.6602478 379.81832886 C-103.4240007 386.00874006 -117.12082615 392.33755207 -130.80172729 398.70858765 C-143.45215221 404.59675004 -156.15739021 410.34276307 -168.92211914 415.97842407 C-185.17056299 423.15436951 -201.3043406 430.57206093 -217.43066406 438.01757812 C-222.81262826 440.50185313 -228.20054341 442.97309259 -233.58984375 445.44140625 C-234.97248413 446.07502075 -234.97248413 446.07502075 -236.38305664 446.72143555 C-242.05591572 449.32026477 -247.73072663 451.91480874 -253.40625 454.5078125 C-255.57800396 455.50009948 -257.74975701 456.49238842 -259.92150879 457.48468018 C-261.40886675 458.16422575 -262.89625283 458.84370979 -264.38366699 459.52313232 C-272.89898943 463.41303907 -281.4106911 467.31059102 -289.9140625 471.2265625 C-305.36605582 478.34163021 -320.83008029 485.42142454 -336.36450195 492.35498047 C-344.57101593 496.02004783 -352.74326814 499.75405071 -360.90454102 503.51855469 C-366.81444318 506.23408491 -372.74480594 508.89843614 -378.6953125 511.5234375 C-379.42211212 511.84415726 -380.14891174 512.16487701 -380.8977356 512.49531555 C-381.63724457 512.8216246 -382.37675354 513.14793365 -383.13867188 513.48413086 C-397.19111997 519.68528019 -411.15767616 526.02819096 -425.02734375 532.62890625 C-436.3706022 538.02711014 -447.74998459 543.29971941 -459.24975586 548.35913086 C-468.40086135 552.38905687 -477.50008849 556.52552722 -486.58984375 560.69140625 C-488.07079372 561.36980707 -489.55175076 562.04819249 -491.03271484 562.7265625 C-493.26522667 563.7492822 -495.49771075 564.77206225 -497.73010254 565.79504395 C-505.16530044 569.20154421 -512.60554233 572.59690762 -520.04949951 575.98422241 C-521.41872972 576.60747591 -522.78775879 577.23117153 -524.15655518 577.8553772 C-532.13041711 581.49143525 -540.12530718 585.07023935 -548.17082214 588.54542542 C-551.45514975 589.97010803 -554.68008329 591.44512512 -557.83984375 593.12890625 C-566.00423966 597.29185098 -574.61010093 599.51823424 -583.58984375 597.00390625 C-592.18472781 590.65116586 -596.27227534 579.54328512 -600.58984375 570.06640625 C-601.24901398 568.63820408 -601.90885791 567.21031268 -602.56933594 565.78271484 C-607.77121131 554.51040625 -612.85402677 543.18377394 -617.90625 531.84375 C-621.71419715 523.29798153 -625.57467799 514.77610036 -629.43502808 506.25390625 C-640.57153277 481.66755039 -651.68504003 457.07072606 -662.69140625 432.42578125 C-663.03345596 431.65999756 -663.37550568 430.89421387 -663.72792053 430.10522461 C-665.40966261 426.33558821 -667.08362791 422.56277934 -668.74291992 418.78320312 C-669.38572338 417.32023271 -670.02870669 415.8573413 -670.671875 414.39453125 C-670.98555527 413.68095459 -671.29923553 412.96737793 -671.62242126 412.23217773 C-673.47908774 408.03325279 -675.40281573 403.87430526 -677.3921051 399.7366333 C-678.94371384 396.50495202 -680.46455947 393.25971055 -681.96484375 390.00390625 C-682.24838715 389.38930542 -682.53193054 388.77470459 -682.82406616 388.14147949 C-687.11257207 378.65482766 -688.19942754 371.05642062 -687.36865234 360.76342773 C-686.99610245 355.51564814 -686.99610245 355.51564814 -689.65234375 351.0703125 C-692.48907694 349.01672266 -692.48907694 349.01672266 -695.47265625 347.734375 C-702.67962088 343.26530424 -706.20111861 333.8952115 -709.83984375 326.50390625 C-710.54765991 325.07522217 -710.54765991 325.07522217 -711.26977539 323.61767578 C-715.7244149 314.52426462 -719.74321723 305.29350463 -723.46484375 295.87890625 C-724.14740234 294.21794922 -724.14740234 294.21794922 -724.84375 292.5234375 C-728.54017571 282.77363171 -729.11250482 273.18526747 -725.27734375 263.37890625 C-720.3068483 252.96847967 -712.8460045 247.72359419 -702.07421875 243.72338867 C-700.12511277 243.04866043 -698.17172815 242.38619994 -696.21484375 241.734375 C-695.14428741 241.36739502 -694.07373108 241.00041504 -692.97073364 240.62231445 C-689.47239241 239.42606633 -685.96877274 238.24617582 -682.46484375 237.06640625 C-680.00078896 236.22734657 -677.53708948 235.38724278 -675.07373047 234.54614258 C-670.01459241 232.82100272 -664.95334313 231.1023393 -659.88964844 229.390625 C-652.97626216 227.053352 -646.06747332 224.70279548 -639.16015625 222.34765625 C-630.82377806 219.50662016 -622.48516321 216.67227279 -614.14453125 213.84375 C-606.89697867 211.38564174 -599.65148711 208.92169218 -592.41015625 206.4453125 C-591.60715088 206.1707019 -590.80414551 205.89609131 -589.97680664 205.61315918 C-586.75428517 204.51092252 -583.53184106 203.40845988 -580.30944824 202.30584717 C-568.95528518 198.42203824 -557.59181321 194.56623868 -546.22265625 190.7265625 C-540.76160498 188.8818471 -535.30066545 187.0368011 -529.83984375 185.19140625 C-529.16058586 184.96188389 -528.48132797 184.73236153 -527.78148651 184.49588394 C-511.41897393 178.96620047 -495.07729737 173.39410826 -478.82299805 167.55249023 C-469.80745352 164.32337568 -460.74224908 161.26539371 -451.65234375 158.25390625 C-419.87369458 147.72466729 -388.18244661 136.93786118 -356.59985352 125.83422852 C-346.13341756 122.15535326 -335.65124578 118.5265397 -325.15234375 114.94140625 C-313.22323824 110.86785794 -301.31457632 106.739127 -289.41690063 102.57467651 C-272.29985682 96.5833922 -255.15189178 90.6906298 -237.97753906 84.86572266 C-223.33719155 79.89871812 -208.73011541 74.84454851 -194.14205933 69.72622681 C-182.6628483 65.70200879 -171.16282217 61.74326938 -159.640625 57.84375 C-158.99700642 57.62588711 -158.35338783 57.40802422 -157.69026566 57.18355942 C-150.70147652 54.81843807 -143.71065159 52.45945208 -136.71777344 50.10644531 C-123.52625125 45.66010436 -110.38667304 41.09401497 -97.28625488 36.38583374 C-87.90886716 33.02087996 -78.49090793 29.80447059 -69.02734375 26.69140625 C-65.97110691 25.68303983 -62.9152356 24.67356845 -59.859375 23.6640625 C-59.13015839 23.42360199 -58.40094177 23.18314148 -57.64962769 22.93539429 C-53.3495661 21.51424509 -49.06443903 20.05673584 -44.7890625 18.5625 C-43.82734131 18.22951904 -42.86562012 17.89653809 -41.87475586 17.5534668 C-40.18067273 16.96461936 -38.48967079 16.3667752 -36.80297852 15.75708008 C-29.4451269 13.21902829 -23.3666806 13.24815493 -15.83984375 15.62890625 C-14.77507813 15.95375 -13.7103125 16.27859375 -12.61328125 16.61328125 C-6.45304204 19.0896057 -2.82304825 22.19571873 0.84765625 27.69140625 C1.22664062 28.25690186 1.605625 28.82239746 1.99609375 29.4050293 C5.5863006 34.82366451 8.98437806 40.35974673 12.234375 45.98828125 C13.80523527 48.70077503 15.47924275 51.30310909 17.2421875 53.89453125 C23.70142128 63.71967768 23.70142128 63.71967768 23.2421875 69.68359375 C22.19809826 73.18901971 20.91213686 76.49330254 19.53515625 79.87890625 C18.6846343 84.08988207 18.15362816 87.73432198 19.53515625 91.87890625 C22.57590378 93.25516141 22.57590378 93.25516141 26.22265625 94.37890625 C39.56401962 98.77437127 39.56401962 98.77437127 43.6796875 106.1875 C44.23008949 107.1321814 44.23008949 107.1321814 44.79161072 108.09594727 C45.99132258 110.16149568 47.16904257 112.23875992 48.34765625 114.31640625 C49.1866402 115.76742076 50.02748676 117.21735978 50.87011719 118.66625977 C52.16302519 120.8898716 53.45478365 123.1140617 54.74081421 125.34165955 C58.4804054 131.81728934 62.33546516 138.21692142 66.2371521 144.5958252 C67.28708764 146.31957715 68.32710627 148.04895014 69.36450195 149.78027344 C72.73966903 155.39129381 76.19425284 160.89777849 79.89453125 166.30078125 C89.66126632 180.8893549 92.89062417 192.28497788 91.53515625 209.87890625 C92.71271484 210.24242187 92.71271484 210.24242187 93.9140625 210.61328125 C99.92433266 212.53066805 105.1555309 214.60435169 110.53515625 217.87890625 C111.19515625 217.87890625 111.85515625 217.87890625 112.53515625 217.87890625 C110.90287633 211.83342507 107.7729183 206.75418517 104.66015625 201.37890625 C103.47383782 199.3068034 102.28897568 197.23386621 101.10546875 195.16015625 C100.50637695 194.11085937 99.90728516 193.0615625 99.29003906 191.98046875 C96.64788404 187.31075013 94.08860961 182.59754112 91.53515625 177.87890625 C87.52437152 170.48233428 83.44092358 163.13248672 79.28515625 155.81640625 C74.34742859 147.12135548 69.48274449 138.38814145 64.66015625 129.62890625 C63.9816897 128.39689114 63.3032229 127.16487617 62.62475586 125.93286133 C62.28837601 125.32201187 61.95199615 124.71116241 61.60542297 124.08180237 C61.26899277 123.47086227 60.93256256 122.85992218 60.5859375 122.23046875 C60.24938644 121.61924667 59.91283539 121.0080246 59.56608582 120.37828064 C50.92534562 104.69008868 42.221568 89.03743746 33.38696289 73.45751953 C29.93335512 67.3647891 26.51044103 61.25572227 23.10229492 55.13745117 C11.7474456 34.05056316 11.7474456 34.05056316 -2.46484375 14.87890625 C-3.11195313 14.13769531 -3.7590625 13.39648438 -4.42578125 12.6328125 C-10.50418659 6.08591347 -17.42211694 2.17346101 -26.4909668 1.76904297 C-42.52646562 2.36143887 -59.04183612 10.29127066 -74.11844254 15.45313644 Z M-37.46484375 32.87890625 C-38.04001225 38.43202117 -36.76637473 42.36148148 -34.21484375 47.19140625 C-33.86639404 47.86856689 -33.51794434 48.54572754 -33.15893555 49.2434082 C-30.17189856 54.88159305 -26.79617421 60.24730726 -23.27734375 65.56640625 C-22.77879883 66.32026611 -22.28025391 67.07412598 -21.76660156 67.85083008 C-19.0086377 71.91310011 -16.29632869 75.7485277 -12.46484375 78.87890625 C-6.28065027 80.04612158 -0.58810628 77.31481112 4.625 74.23046875 C6.47943426 72.91833326 7.95342516 71.50063514 9.53515625 69.87890625 C7.33697068 62.00480867 3.67743813 55.73808617 -0.71484375 48.87890625 C-1.35808594 47.85023437 -2.00132812 46.8215625 -2.6640625 45.76171875 C-9.28650384 33.97457033 -9.28650384 33.97457033 -19.46484375 25.87890625 C-25.92944542 24.80147264 -32.92879654 28.34285904 -37.46484375 32.87890625 Z M-85.15234375 50.25390625 C-86.88656787 53.7223545 -86.39726754 55.12721997 -85.46484375 58.87890625 C-84.31654777 61.61734648 -82.94642169 64.20967384 -81.52734375 66.81640625 C-81.1312793 67.55205811 -80.73521484 68.28770996 -80.32714844 69.0456543 C-77.4882115 74.22466104 -74.45529468 79.25419104 -71.21484375 84.19140625 C-70.81531494 84.80685303 -70.41578613 85.4222998 -70.00415039 86.05639648 C-67.04789173 90.43665063 -64.22649167 94.31749501 -58.8515625 95.41015625 C-52.41506644 95.33563821 -46.29568666 94.70974916 -41.46484375 89.87890625 C-41.18298678 73.81305875 -54.29659557 57.7738669 -64.66015625 46.48828125 C-70.90293413 40.92112868 -79.77102063 45.49831837 -85.15234375 50.25390625 Z M-137.15234375 67.75390625 C-138.71675062 69.83384314 -138.71675062 69.83384314 -138.3203125 72.48828125 C-137.21920658 76.85248189 -135.31217675 80.36282538 -133.08984375 84.25390625 C-132.64938721 85.0339502 -132.20893066 85.81399414 -131.75512695 86.61767578 C-128.58866934 92.13293757 -125.22237167 97.49145699 -121.65234375 102.75390625 C-121.20906738 103.41310059 -120.76579102 104.07229492 -120.30908203 104.75146484 C-117.75260785 108.42453788 -115.27767913 111.40922879 -111.46484375 113.87890625 C-104.01207878 114.0052243 -97.65691402 110.79129191 -91.609375 106.58984375 C-90.20724552 104.84946822 -90.20724552 104.84946822 -90.53125 102.19140625 C-91.68456032 98.0993261 -93.38353506 94.60701837 -95.40234375 90.87890625 C-95.7998584 90.13922607 -96.19737305 89.3995459 -96.60693359 88.63745117 C-101.88771193 79.0321992 -108.0729121 67.90391901 -117.46484375 61.87890625 C-124.46451376 60.55821379 -131.46115515 63.78330955 -137.15234375 67.75390625 Z M-182.65234375 82.06640625 C-183.38904297 82.35837891 -184.12574219 82.65035156 -184.88476562 82.95117188 C-189.02979763 84.66986015 -189.02979763 84.66986015 -191.66015625 88.12890625 C-191.38077521 92.06259129 -189.88136862 95.21392035 -188.15234375 98.69140625 C-187.79277588 99.43189209 -187.43320801 100.17237793 -187.06274414 100.93530273 C-178.31425355 119.75960091 -178.31425355 119.75960091 -163.65234375 133.06640625 C-154.63154203 132.53577085 -147.99557533 129.05260467 -141.46484375 122.87890625 C-140.96984375 121.88890625 -140.96984375 121.88890625 -140.46484375 120.87890625 C-141.08841103 119.06722295 -141.08841103 119.06722295 -142.16796875 117.08984375 C-142.56604736 116.32043457 -142.96412598 115.55102539 -143.37426758 114.75830078 C-143.81665771 113.93185059 -144.25904785 113.10540039 -144.71484375 112.25390625 C-145.16432373 111.40812012 -145.61380371 110.56233398 -146.0769043 109.69091797 C-149.20103597 103.93199593 -152.5706865 98.40550981 -156.27734375 93.00390625 C-156.9420166 92.03396729 -156.9420166 92.03396729 -157.62011719 91.04443359 C-162.86698631 83.57084911 -162.86698631 83.57084911 -170.46484375 78.87890625 C-175.25165958 78.87890625 -178.32230166 80.20737485 -182.65234375 82.06640625 Z M-242.08984375 103.75390625 C-244.06886999 106.81240135 -243.91021984 108.21872456 -243.46484375 111.87890625 C-241.89579755 115.57010465 -239.94566608 119.01998412 -237.96484375 122.50390625 C-237.14487915 123.97234985 -237.14487915 123.97234985 -236.30834961 125.47045898 C-228.66946302 141.14632383 -228.66946302 141.14632383 -216.140625 151.54296875 C-209.33752207 151.43052077 -204.17214334 149.59650507 -198.46484375 145.87890625 C-197.85511719 145.49347656 -197.24539063 145.10804688 -196.6171875 144.7109375 C-194.98592645 142.11750892 -195.42408409 139.96392719 -195.921875 137.03271484 C-196.81201051 133.50179061 -198.27938263 130.40651269 -199.96484375 127.19140625 C-200.31651611 126.5051416 -200.66818848 125.81887695 -201.03051758 125.11181641 C-206.01799058 115.62388119 -212.44006521 103.89542528 -221.46484375 97.87890625 C-229.19166371 97.06555678 -235.7745564 99.24298672 -242.08984375 103.75390625 Z M9.39453125 103.08203125 C8.68726898 103.31589035 7.98000671 103.54974945 7.25131226 103.79069519 C4.92670176 104.56266592 2.60569405 105.34478364 0.28515625 106.12890625 C-0.90403412 106.52857101 -0.90403412 106.52857101 -2.11724854 106.93630981 C-13.21349291 110.67068446 -24.27454152 114.50532861 -35.2611084 118.55187988 C-36.63575163 119.05745218 -38.01179751 119.55922854 -39.38928223 120.05700684 C-49.23936214 123.58418711 -49.23936214 123.58418711 -57.46484375 129.87890625 C-53.41720583 137.31841953 -49.19400673 144.53727467 -44.27734375 151.44140625 C-43.87402832 152.01197754 -43.47071289 152.58254883 -43.05517578 153.17041016 C-38.41309957 159.80733272 -38.41309957 159.80733272 -31.66015625 163.828125 C-27.61037367 163.89248585 -24.14935203 162.92566627 -20.33984375 161.69140625 C-19.59573242 161.46163086 -18.85162109 161.23185547 -18.08496094 160.99511719 C-12.6866486 159.3149709 -7.31910919 157.53667877 -1.98046875 155.67578125 C4.39577328 153.65597787 10.88573455 153.05125546 17.53515625 153.87890625 C20.82158803 156.41842171 21.36148775 157.83689526 22.03515625 161.87890625 C21.37017387 165.86880055 20.55856586 167.13674405 17.53515625 169.87890625 C12.25211561 172.80344661 6.57452312 174.86709303 0.96118164 177.06152344 C-11.81400336 181.75958679 -11.81400336 181.75958679 -22.46484375 189.87890625 C-21.02685966 193.89928925 -19.0872515 197.16776288 -16.69140625 200.6953125 C-16.32639008 201.23365219 -15.9613739 201.77199188 -15.58529663 202.3266449 C-14.81603818 203.45853207 -14.04439852 204.58880421 -13.27050781 205.7175293 C-12.09399515 207.43534483 -10.92739982 209.15958713 -9.76171875 210.88476562 C-9.00970008 211.98868033 -8.25711454 213.09220913 -7.50390625 214.1953125 C-6.82537598 215.18990479 -6.1468457 216.18449707 -5.44775391 217.20922852 C-2.24690381 221.95797568 -2.24690381 221.95797568 2.67602539 224.20458984 C9.84467909 223.27538942 16.2480666 221.11028282 22.97265625 218.50390625 C24.13482666 218.06272461 25.29699707 217.62154297 26.49438477 217.16699219 C35.02072122 213.9069729 43.50715279 210.54353325 51.97265625 207.12890625 C53.05409912 206.69400879 54.13554199 206.25911133 55.24975586 205.81103516 C58.36253908 204.53741591 61.45283866 203.22452122 64.53515625 201.87890625 C65.66195801 201.38841797 66.78875977 200.89792969 67.94970703 200.39257812 C69.58721924 199.63557617 69.58721924 199.63557617 71.2578125 198.86328125 C72.246604 198.41178711 73.23539551 197.96029297 74.25415039 197.49511719 C76.72010023 196.06269908 76.72010023 196.06269908 77.47631836 193.45507812 C77.54222379 190.56945941 77.10383247 189.2054256 75.75390625 186.67578125 C75.12077515 185.47199829 75.12077515 185.47199829 74.47485352 184.24389648 C73.99975342 183.38094971 73.52465332 182.51800293 73.03515625 181.62890625 C72.54394287 180.7150415 72.05272949 179.80117676 71.54663086 178.85961914 C65.81522221 168.33060555 59.58712724 158.09398912 53.34570312 147.86230469 C51.65637003 145.07864094 49.9887712 142.28362286 48.33203125 139.48046875 C43.44926865 131.22236832 38.46430695 123.04000424 33.22265625 115.00390625 C32.52136597 113.90671265 32.52136597 113.90671265 31.8059082 112.78735352 C28.74918958 108.17558524 25.3563866 103.75400832 20.53515625 100.87890625 C16.39759652 100.87890625 13.24761978 101.78243554 9.39453125 103.08203125 Z M-297.21484375 123.56640625 C-298.97964157 126.83128222 -298.18513735 128.76563281 -297.32958984 132.28198242 C-295.71510861 137.13044005 -293.06201027 141.35288423 -290.40234375 145.69140625 C-289.82250732 146.6546582 -289.2426709 147.61791016 -288.64526367 148.61035156 C-283.89202662 156.40736848 -278.95595726 164.38779274 -272.46484375 170.87890625 C-265.29395363 172.04468423 -259.72384049 170.21541424 -253.46484375 166.87890625 C-252.74039063 166.56695312 -252.0159375 166.255 -251.26953125 165.93359375 C-249.11997411 164.94347755 -249.11997411 164.94347755 -248.46484375 161.87890625 C-248.46484375 147.14192215 -262.19683681 129.74484542 -271.46484375 118.87890625 C-279.78631317 114.71817154 -289.97544716 119.12404925 -297.21484375 123.56640625 Z M-342.15234375 137.94140625 C-342.89806641 138.25529297 -343.64378906 138.56917969 -344.41210938 138.89257812 C-348.48947787 140.6784728 -351.53903373 142.41270915 -354.46484375 145.87890625 C-352.88099841 151.41789081 -350.30830174 156.18500676 -347.52734375 161.19140625 C-347.046604 162.0613623 -346.56586426 162.93131836 -346.07055664 163.82763672 C-338.41824521 178.18473607 -338.41824521 178.18473607 -328.46484375 190.87890625 C-317.92784487 191.21468315 -310.64978029 188.34441735 -302.96875 181.3046875 C-302.47246094 180.83417969 -301.97617187 180.36367187 -301.46484375 179.87890625 C-302.05664538 175.92109366 -303.27744464 173.05468482 -305.2734375 169.59765625 C-305.85085693 168.59629639 -306.42827637 167.59493652 -307.02319336 166.56323242 C-307.64331299 165.51240479 -308.26343262 164.46157715 -308.90234375 163.37890625 C-309.53470947 162.30552002 -310.1670752 161.23213379 -310.81860352 160.1262207 C-321.91889057 139.0757686 -321.91889057 139.0757686 -342.15234375 137.94140625 Z M-109.46484375 147.87890625 C-110.88587107 150.99567117 -110.88587107 150.99567117 -108.875 154.28515625 C-108.10516366 155.65695341 -107.32172804 157.02117688 -106.52734375 158.37890625 C-106.11709961 159.09216064 -105.70685547 159.80541504 -105.28417969 160.5402832 C-97.75910479 174.45083265 -97.75910479 174.45083265 -85.83984375 183.87890625 C-77.17754503 183.87890625 -69.68828825 180.39132961 -62.46484375 175.87890625 C-67.03662197 166.1881955 -71.76805593 157.31511948 -78.46484375 148.87890625 C-78.91601562 148.25242188 -79.3671875 147.6259375 -79.83203125 146.98046875 C-82.87905816 142.897851 -85.76154782 141.47625204 -90.46484375 139.87890625 C-97.63418833 139.87890625 -104.15418124 143.35919348 -109.46484375 147.87890625 Z M-409.46484375 164.87890625 C-409.41078524 169.39665295 -406.92979181 173.3665098 -404.90234375 177.31640625 C-404.54591797 178.01797852 -404.18949219 178.71955078 -403.82226562 179.44238281 C-398.04782519 190.70203423 -391.6419628 201.45681316 -384.46484375 211.87890625 C-375.21825338 211.52120449 -366.87370737 210.01598229 -359.21484375 204.56640625 C-357.27509503 201.58750644 -357.27414329 200.35360161 -357.87646484 196.93286133 C-359.06797719 192.77344498 -361.26864093 189.11802134 -363.40234375 185.37890625 C-364.13626343 184.07083008 -364.13626343 184.07083008 -364.88500977 182.73632812 C-372.68316685 168.13792907 -372.68316685 168.13792907 -383.46484375 155.87890625 C-391.99306999 153.63870189 -404.23856619 157.8247188 -409.46484375 164.87890625 Z M-162.46484375 165.87890625 C-163.47857027 167.62383934 -163.47857027 167.62383934 -163.46484375 169.87890625 C-160.10540342 177.52592058 -155.12084212 184.61140857 -150.33984375 191.44140625 C-149.74755981 192.29774658 -149.74755981 192.29774658 -149.14331055 193.17138672 C-145.7936917 197.82735002 -142.14911983 202.34205103 -136.33984375 203.50390625 C-128.0062951 202.1597855 -120.52339239 198.76916187 -114.46484375 192.87890625 C-119.39411863 181.61940468 -129.53080752 162.77492111 -141.46484375 157.87890625 C-148.94851641 156.68832196 -156.76117016 161.31596738 -162.46484375 165.87890625 Z M-465.46484375 181.87890625 C-466.89413281 185.71224855 -466.60872064 187.49696279 -465.1640625 191.33203125 C-464.5109633 192.60676107 -463.83916245 193.8720233 -463.15234375 195.12890625 C-462.79277588 195.813479 -462.43320801 196.49805176 -462.06274414 197.20336914 C-460.88045886 199.4380875 -459.67314158 201.65816106 -458.46484375 203.87890625 C-457.62597187 205.45555352 -456.78743348 207.03237827 -455.94921875 208.609375 C-449.15571105 223.15275495 -449.15571105 223.15275495 -437.46484375 232.87890625 C-429.1853476 232.6540637 -421.34324011 229.39862643 -414.68359375 224.59375 C-412.84679421 222.00927886 -413.24645332 219.99280756 -413.46484375 216.87890625 C-414.40800202 214.30582144 -414.40800202 214.30582144 -415.84375 211.8671875 C-416.34946533 210.94953613 -416.85518066 210.03188477 -417.3762207 209.08642578 C-417.92109131 208.13106934 -418.46596191 207.17571289 -419.02734375 206.19140625 C-419.57801514 205.20769043 -420.12868652 204.22397461 -420.69604492 203.21044922 C-428.93865077 186.30461014 -428.93865077 186.30461014 -442.46484375 174.87890625 C-450.34549663 174.05800491 -459.23008416 177.0114185 -465.46484375 181.87890625 Z M-215.46484375 185.87890625 C-215.23134199 191.03100956 -213.06698156 194.8501711 -210.40234375 199.12890625 C-210.00039795 199.7849585 -209.59845215 200.44101074 -209.18432617 201.11694336 C-205.68770436 206.72211535 -201.82816754 211.91342524 -197.46484375 216.87890625 C-196.92988281 217.50796875 -196.39492188 218.13703125 -195.84375 218.78515625 C-193.68007381 221.16801002 -191.75434007 222.75772175 -188.77734375 224.00390625 C-182.34619292 223.76122131 -175.97728177 221.30813644 -170.77734375 217.50390625 C-168.20787486 215.10054419 -168.20787486 215.10054419 -168.17578125 212.02734375 C-169.23144857 200.52912941 -181.06308651 187.91840115 -189.08984375 180.00390625 C-192.73411529 177.70936491 -194.68780973 177.0001954 -198.91796875 177.27734375 C-204.81214442 178.66952635 -211.1585915 181.572654 -215.46484375 185.87890625 Z M-524.46484375 202.75390625 C-525.82541851 205.64512762 -525.69654426 207.69743354 -525.46484375 210.87890625 C-524.36237804 213.69920427 -524.36237804 213.69920427 -522.71875 216.44140625 C-521.83968994 217.99843262 -521.83968994 217.99843262 -520.94287109 219.58691406 C-520.31074707 220.67327148 -519.67862305 221.75962891 -519.02734375 222.87890625 C-518.39006348 223.99362305 -517.7527832 225.10833984 -517.09619141 226.25683594 C-508.56234745 241.09251405 -508.56234745 241.09251405 -498.46484375 254.87890625 C-492.57336133 253.84531284 -487.15191849 252.15787656 -481.58984375 250.00390625 C-480.93556396 249.75946777 -480.28128418 249.5150293 -479.60717773 249.26318359 C-475.88138455 247.77750003 -473.12804187 246.63747208 -471.46484375 242.87890625 C-471.32981217 235.90227464 -475.09775901 230.26372857 -478.40234375 224.31640625 C-478.98701416 223.25462158 -479.57168457 222.19283691 -480.17407227 221.09887695 C-488.1756969 205.34997656 -488.1756969 205.34997656 -501.46484375 194.87890625 C-509.69319598 194.87890625 -518.35176277 197.02289283 -524.46484375 202.75390625 Z M-270.46484375 206.87890625 C-269.9547002 212.1260971 -267.25185453 216.0086437 -264.52734375 220.37890625 C-263.79451172 221.56516602 -263.79451172 221.56516602 -263.046875 222.77539062 C-255.64575281 235.11390771 -255.64575281 235.11390771 -245.46484375 244.87890625 C-237.13916235 245.38968425 -228.58613396 241.95588359 -222.33984375 236.62890625 C-221.39109375 235.72140625 -220.44234375 234.81390625 -219.46484375 233.87890625 C-220.9548166 229.73323049 -223.0186398 226.1232337 -225.40234375 222.44140625 C-225.79059326 221.84030029 -226.17884277 221.23919434 -226.57885742 220.61987305 C-229.62149782 215.99378712 -232.87315693 211.55720827 -236.27734375 207.19140625 C-236.96074829 206.30980835 -236.96074829 206.30980835 -237.65795898 205.41040039 C-242.07930735 199.77523385 -242.07930735 199.77523385 -248.52734375 197.44140625 C-256.95811452 198.37815856 -263.89134643 201.62010839 -270.46484375 206.87890625 Z M-105.26171875 220.140625 C-107.09291585 222.78634808 -106.80306839 224.73263056 -106.46484375 227.87890625 C-103.9077041 234.53162729 -99.49708614 240.4579887 -95.40234375 246.25390625 C-94.99129395 246.8365625 -94.58024414 247.41921875 -94.15673828 248.01953125 C-90.79970419 252.65766191 -87.26844021 256.67650861 -82.46484375 259.87890625 C-75.54096301 259.60195102 -69.4818949 256.96210824 -63.83984375 253.06640625 C-61.75646851 249.75194565 -62.62911188 247.63583053 -63.46484375 243.87890625 C-64.76443952 241.43031165 -66.03507033 239.26956052 -67.58984375 237.00390625 C-67.99509277 236.39675781 -68.4003418 235.78960937 -68.81787109 235.1640625 C-76.24443454 223.68407349 -76.24443454 223.68407349 -86.46484375 214.87890625 C-92.95358464 213.65461552 -99.9195623 216.3895021 -105.26171875 220.140625 Z M-585.06835938 224.45898438 C-585.75961914 225.1618457 -585.75961914 225.1618457 -586.46484375 225.87890625 C-584.54798591 233.4622379 -581.60031861 239.95067134 -577.77734375 246.75390625 C-577.24423584 247.71482178 -576.71112793 248.6757373 -576.16186523 249.66577148 C-568.6692102 265.04797086 -568.6692102 265.04797086 -556.46484375 275.54296875 C-548.0682174 275.37897214 -539.42405078 272.34801643 -532.58984375 267.44140625 C-530.14834236 265.08714998 -530.14834236 265.08714998 -530.609375 262.1875 C-531.61285821 258.30644851 -533.18889756 254.91551212 -535.02734375 251.37890625 C-535.38231934 250.68474609 -535.73729492 249.99058594 -536.10302734 249.27539062 C-545.32597216 228.93146573 -545.32597216 228.93146573 -561.08984375 214.87890625 C-569.93924571 214.87890625 -578.72874607 218.21203289 -585.06835938 224.45898438 Z M-324.46484375 226.87890625 C-325.56663343 229.03557218 -325.56663343 229.03557218 -325.46484375 231.87890625 C-324.15991693 234.93473758 -322.39191056 237.65692426 -320.58984375 240.44140625 C-320.0882373 241.23627441 -319.58663086 242.03114258 -319.06982422 242.85009766 C-311.20509749 255.65413177 -311.20509749 255.65413177 -300.46484375 265.87890625 C-292.05801397 267.18341432 -284.84085259 263.18701711 -277.90234375 258.69140625 C-275.44453521 256.95559371 -275.44453521 256.95559371 -273.46484375 254.87890625 C-273.82218741 251.49152091 -275.41377327 249.20603811 -277.34375 246.46484375 C-277.9318042 245.62550293 -278.5198584 244.78616211 -279.12573242 243.92138672 C-280.06703003 242.60098389 -280.06703003 242.60098389 -281.02734375 241.25390625 C-281.66196533 240.35687988 -282.29658691 239.45985352 -282.95043945 238.53564453 C-290.12068583 227.65027337 -290.12068583 227.65027337 -299.46484375 218.87890625 C-307.84695844 217.96449374 -318.72100782 220.34281709 -324.46484375 226.87890625 Z M74.53515625 226.87890625 C75.92270232 237.18914439 84.20930844 247.31298838 90.53125 255.29296875 C92.53515625 257.87890625 92.53515625 257.87890625 93.7578125 260.02734375 C94.8163813 262.04693625 94.8163813 262.04693625 97.53515625 263.87890625 C103.62262447 264.044498 108.80672494 263.16675703 113.72265625 259.50390625 C115.92931969 256.34139491 115.92931969 256.34139491 117.53515625 252.87890625 C116.95129913 250.96866431 116.95129913 250.96866431 115.640625 249.19140625 C114.95528687 248.15137451 114.95528687 248.15137451 114.25610352 247.09033203 C113.75006592 246.36056152 113.24402832 245.63079102 112.72265625 244.87890625 C112.21726318 244.12722168 111.71187012 243.37553711 111.19116211 242.60107422 C109.6609356 240.34430856 108.10505345 238.10822077 106.53515625 235.87890625 C106.09010742 235.24629883 105.64505859 234.61369141 105.18652344 233.96191406 C100.23274605 226.55312089 100.23274605 226.55312089 93.53515625 220.87890625 C86.73806387 220.87890625 80.13092681 222.96186686 74.53515625 226.87890625 Z M-645.71484375 243.1875 C-647.84287676 244.93662714 -647.84287676 244.93662714 -648.33984375 248.69140625 C-647.14582744 257.5979531 -641.32442955 266.1738644 -637.15234375 273.94140625 C-636.60900391 274.97845703 -636.06566406 276.01550781 -635.50585938 277.08398438 C-632.11374709 283.3996409 -628.45877046 288.73398557 -623.46484375 293.87890625 C-622.66046875 294.72453125 -621.85609375 295.57015625 -621.02734375 296.44140625 C-617.41152669 298.46979143 -614.36749951 297.67308948 -610.46484375 296.87890625 C-607.80967981 296.11903276 -605.27335231 295.16486677 -602.71484375 294.12890625 C-602.06902344 293.88914062 -601.42320312 293.649375 -600.7578125 293.40234375 C-596.44465761 291.68416706 -593.69959858 289.99555989 -591.46484375 285.87890625 C-591.41154108 279.65772312 -594.22914941 274.41819466 -596.90234375 268.94140625 C-597.34465332 268.02423828 -597.78696289 267.10707031 -598.24267578 266.16210938 C-602.4066959 257.69580779 -607.13368811 249.66052291 -612.46484375 241.87890625 C-613.07585937 240.95078125 -613.686875 240.02265625 -614.31640625 239.06640625 C-622.65371597 230.57750908 -637.32701788 237.68298927 -645.71484375 243.1875 Z M-159.06640625 243.453125 C-159.52789063 243.92363281 -159.989375 244.39414062 -160.46484375 244.87890625 C-156.61060588 255.28721046 -149.2244116 264.20693398 -142.46484375 272.87890625 C-141.84351563 273.71550781 -141.2221875 274.55210937 -140.58203125 275.4140625 C-137.94756071 278.76326608 -136.47531518 280.6213351 -132.27734375 281.69140625 C-123.99642885 279.92662111 -116.56819003 276.81271513 -110.46484375 270.87890625 C-114.25843775 260.76879407 -120.41544674 251.97732067 -127.46484375 243.87890625 C-128.05265625 243.18410156 -128.64046875 242.48929688 -129.24609375 241.7734375 C-132.51639481 238.16867384 -135.41430439 235.74676989 -140.296875 234.90625 C-148.10160383 234.80781198 -153.57762613 238.21383488 -159.06640625 243.453125 Z M-377.77734375 246.62890625 C-379.02291175 247.69334138 -380.2590082 248.76966217 -381.46484375 249.87890625 C-379.2330968 257.89290668 -374.36656409 264.59731064 -369.93310547 271.54150391 C-368.55368038 273.73748259 -367.24201418 275.96214301 -365.9375 278.203125 C-362.05504649 284.93154105 -362.05504649 284.93154105 -355.59375 288.69140625 C-352.26705421 288.55297418 -349.62432073 287.92675297 -346.46484375 286.87890625 C-345.39105469 286.52957031 -344.31726563 286.18023437 -343.2109375 285.8203125 C-337.58004786 283.71304705 -333.24285442 281.60141959 -329.46484375 276.87890625 C-330.83103687 272.1331828 -332.88873421 268.22393438 -335.58984375 264.12890625 C-335.98800293 263.51909912 -336.38616211 262.90929199 -336.79638672 262.28100586 C-345.21391044 248.75268976 -345.21391044 248.75268976 -357.28125 239.1015625 C-364.50273796 238.36520326 -372.25261471 242.31435595 -377.77734375 246.62890625 Z M24.66015625 246.69140625 C23.95890625 247.41328125 23.25765625 248.13515625 22.53515625 248.87890625 C26.09664196 262.05640339 35.89511058 277.49392121 47.53515625 284.87890625 C52.02722448 286.24605745 55.57781273 285.0538523 59.72265625 283.12890625 C65.63785968 279.97767518 65.63785968 279.97767518 69.4296875 274.71484375 C69.58566979 270.52065331 67.52409433 267.81286364 65.28515625 264.44140625 C64.83640137 263.74635986 64.38764648 263.05131348 63.92529297 262.33520508 C60.70138416 257.42807065 57.26648032 252.69862489 53.66015625 248.06640625 C53.20866211 247.48640869 52.75716797 246.90641113 52.29199219 246.30883789 C49.96067618 243.39903264 47.72452655 240.84637494 44.53515625 238.87890625 C38.27414126 238.87890625 29.41632083 242.67049417 24.66015625 246.69140625 Z M-213.46484375 265.87890625 C-213.17927908 278.49414553 -198.29460672 292.71106196 -190.46484375 301.87890625 C-187.84315341 303.9581779 -186.42737675 303.87958747 -183.02734375 303.94140625 C-175.98181343 302.86463652 -169.20985438 298.59572759 -163.515625 294.46484375 C-162.24642576 292.87933482 -162.24642576 292.87933482 -162.52734375 290.6015625 C-163.70757797 287.17396562 -165.46792183 284.31158063 -167.46484375 281.31640625 C-168.06389526 280.40483765 -168.06389526 280.40483765 -168.67504883 279.47485352 C-176.55989264 266.69246672 -176.55989264 266.69246672 -187.46484375 256.87890625 C-195.65810319 255.41582421 -208.60417915 258.81340409 -213.46484375 265.87890625 Z M-696.46484375 261.87890625 C-698.20991459 267.26691301 -696.59813745 270.99712406 -694.27734375 275.87890625 C-693.92438232 276.64420654 -693.5714209 277.40950684 -693.20776367 278.19799805 C-690.10168278 284.80015214 -686.72626716 291.26296801 -683.27734375 297.69140625 C-682.77887939 298.62791016 -682.28041504 299.56441406 -681.7668457 300.52929688 C-678.02589075 307.35385246 -673.87578527 313.26672758 -666.65234375 316.75390625 C-663.09237031 316.9573333 -660.57357379 315.49084035 -657.46484375 313.87890625 C-654.98655439 310.16147221 -655.28259101 308.70628478 -655.87646484 304.44775391 C-656.97001533 299.67333972 -659.10106717 295.43127373 -661.27734375 291.06640625 C-661.76654297 290.07825928 -662.25574219 289.0901123 -662.75976562 288.07202148 C-664.30511124 284.99532084 -665.8823095 281.93661812 -667.46484375 278.87890625 C-667.9654834 277.8847168 -668.46612305 276.89052734 -668.98193359 275.86621094 C-670.42798119 273.02891532 -671.9332969 270.23330174 -673.46484375 267.44140625 C-673.90159424 266.57733154 -674.33834473 265.71325684 -674.78833008 264.82299805 C-676.18303875 262.39180639 -677.29414957 260.65759758 -679.46484375 258.87890625 C-685.34438333 257.6504093 -691.64728501 258.07557041 -696.46484375 261.87890625 Z M-426.02734375 262.19140625 C-427.17879883 262.65450195 -427.17879883 262.65450195 -428.35351562 263.12695312 C-429.46243164 263.58618164 -429.46243164 263.58618164 -430.59375 264.0546875 C-431.2647876 264.33223877 -431.9358252 264.60979004 -432.62719727 264.89575195 C-434.6915225 266.00018104 -436.01565891 267.03746935 -437.46484375 268.87890625 C-437.08910121 281.48882601 -425.85794038 294.1340089 -418.46484375 303.87890625 C-418.05669434 304.4409375 -417.64854492 305.00296875 -417.22802734 305.58203125 C-415.3946976 307.98546002 -413.90343604 309.68405743 -411.1171875 310.921875 C-407.4135119 310.86187436 -404.38092975 309.62579149 -401.02734375 308.19140625 C-400.38474609 307.93423828 -399.74214844 307.67707031 -399.08007812 307.41210938 C-391.19855347 304.25070444 -391.19855347 304.25070444 -386.15234375 297.87890625 C-385.61566258 287.30181477 -399.05277865 273.64472801 -405.46484375 265.87890625 C-408.05797072 263.12323633 -410.31779716 260.97693731 -413.46484375 258.87890625 C-418.34529288 258.87890625 -421.58939707 260.33009021 -426.02734375 262.19140625 Z M-64.71484375 281.87890625 C-65.38749268 282.17410156 -66.0601416 282.46929687 -66.75317383 282.7734375 C-68.86944429 283.74849505 -68.86944429 283.74849505 -71.46484375 285.87890625 C-72.98224811 290.76707603 -72.60356382 293.82686667 -70.27734375 298.31640625 C-66.25458289 305.81293943 -61.06784907 312.50576802 -55.80371094 319.16748047 C-54.63640364 320.65960741 -53.51866296 322.19024807 -52.41015625 323.7265625 C-50.08528871 326.2988557 -48.88311389 327.22025223 -45.46484375 327.87890625 C-42.52880723 327.39843587 -39.81914065 326.45290119 -37.02734375 325.44140625 C-36.23328125 325.16280762 -35.43921875 324.88420898 -34.62109375 324.59716797 C-22.99578348 320.40095345 -12.77496294 315.13788295 -3.46484375 306.87890625 C-4.91026132 301.55151006 -7.38794236 297.63795481 -10.52734375 293.19140625 C-11.01468994 292.49313721 -11.50203613 291.79486816 -12.00415039 291.07543945 C-19.4721019 279.68885309 -19.4721019 279.68885309 -29.46484375 270.87890625 C-40.9601174 270.12651009 -54.48922266 277.09078431 -64.71484375 281.87890625 Z M-254.96484375 279.62890625 C-256.06828125 279.95375 -257.17171875 280.27859375 -258.30859375 280.61328125 C-261.69232968 281.97012585 -263.89696577 283.29242046 -266.46484375 285.87890625 C-267.89437151 289.23128899 -267.56586801 290.60151761 -266.3125 294.04296875 C-256.99703102 312.97114245 -256.99703102 312.97114245 -241.46484375 325.87890625 C-233.16459589 325.87890625 -225.52292791 322.04028472 -219.04296875 316.9921875 C-217.21157398 314.99631344 -217.21157398 314.99631344 -217.53515625 312.46875 C-221.9755408 300.09910733 -232.52171872 285.32023127 -243.46484375 277.87890625 C-247.57883734 277.4436373 -251.03917595 278.43653052 -254.96484375 279.62890625 Z M-495.46484375 289.87890625 C-494.96907664 295.19651787 -493.63214358 299.25264105 -491.02734375 303.94140625 C-490.67679932 304.58335937 -490.32625488 305.2253125 -489.96508789 305.88671875 C-486.00746069 312.95631893 -481.4143747 319.47555268 -476.46484375 325.87890625 C-475.86929687 326.70390625 -475.27375 327.52890625 -474.66015625 328.37890625 C-473.00234784 330.40952325 -471.80922203 331.70671711 -469.46484375 332.87890625 C-465.52108985 333.04373807 -462.18880534 332.11001015 -458.46484375 330.87890625 C-457.55605469 330.57855469 -456.64726562 330.27820313 -455.7109375 329.96875 C-451.11027441 328.27521232 -446.82262793 326.56163728 -443.46484375 322.87890625 C-442.21120132 318.94545937 -442.32667134 317.21484024 -443.9140625 313.35546875 C-444.63945812 312.0598073 -445.38699921 310.77637831 -446.15234375 309.50390625 C-446.75224121 308.47583862 -446.75224121 308.47583862 -447.36425781 307.42700195 C-450.54413498 302.1137053 -454.04026781 297.04789243 -457.71484375 292.06640625 C-458.4567395 291.05344482 -458.4567395 291.05344482 -459.21362305 290.02001953 C-462.49734512 285.70603448 -465.37838467 282.46401698 -470.9375 281.41015625 C-480.0971158 281.29963298 -488.29539511 284.0992798 -495.46484375 289.87890625 Z M-309.21484375 301.00390625 C-309.93551025 301.23255371 -310.65617676 301.46120117 -311.39868164 301.69677734 C-316.48285739 303.38514665 -320.48920857 305.19417121 -324.46484375 308.87890625 C-325.88519062 312.01778194 -325.88519062 312.01778194 -323.875 315.46875 C-323.10493659 316.92464323 -322.32151308 318.37352101 -321.52734375 319.81640625 C-321.11637451 320.57550293 -320.70540527 321.33459961 -320.28198242 322.11669922 C-316.70285103 328.6338414 -312.83544324 334.85657278 -308.46484375 340.87890625 C-307.92988281 341.62269531 -307.39492188 342.36648438 -306.84375 343.1328125 C-303.97739206 346.88087095 -303.97739206 346.88087095 -299.65234375 348.62890625 C-292.0675222 349.22379421 -282.65840246 346.41146513 -276.46484375 341.87890625 C-275.08942022 340.24680157 -273.74816873 338.58437761 -272.46484375 336.87890625 C-278.89114753 322.91047745 -287.34236038 310.57977924 -298.46484375 299.87890625 C-302.49484184 298.53557355 -305.32128179 299.75658739 -309.21484375 301.00390625 Z M-118.33203125 304.89453125 C-119.10278992 305.21736084 -119.87354858 305.54019043 -120.66766357 305.87280273 C-123.22931323 306.94835924 -125.78440045 308.03869544 -128.33984375 309.12890625 C-130.15497796 309.89399172 -131.97058091 310.65796594 -133.78662109 311.42089844 C-137.65987645 313.04934473 -141.53082567 314.68311731 -145.40039062 316.3203125 C-151.51196524 318.90291854 -157.63519915 321.45698811 -163.76171875 324.00390625 C-164.7793631 324.42698059 -165.79700745 324.85005493 -166.8454895 325.28594971 C-168.89918397 326.13963115 -170.95290505 326.99324859 -173.00665283 327.84680176 C-187.00273037 333.66688698 -200.98913032 339.51010132 -214.96484375 345.37890625 C-242.2029987 356.81699267 -269.47991501 368.1630915 -296.7739563 379.46710205 C-317.91774343 388.22402351 -339.03495224 397.04358791 -360.13647461 405.90185547 C-362.33870435 406.82597452 -364.54133727 407.74912425 -366.74414062 408.671875 C-370.38164381 410.19581192 -374.01721858 411.72430458 -377.65234375 413.25390625 C-378.66031006 413.67591309 -379.66827637 414.09791992 -380.70678711 414.53271484 C-391.83449765 418.55543969 -391.83449765 418.55543969 -400.46484375 425.87890625 C-400.88975332 436.28919063 -391.71253956 446.87712246 -386.33984375 455.25390625 C-385.73269531 456.21167969 -385.12554687 457.16945313 -384.5 458.15625 C-382.84584687 460.74739619 -381.1637179 463.31693848 -379.46484375 465.87890625 C-378.80742187 466.88179687 -378.15 467.8846875 -377.47265625 468.91796875 C-374.59085897 471.73248672 -372.44599929 472.34147092 -368.46484375 472.87890625 C-365.47930419 472.09793092 -363.06408064 471.24430063 -360.27734375 470.00390625 C-359.01567383 469.47120117 -359.01567383 469.47120117 -357.72851562 468.92773438 C-354.62821979 467.60520038 -351.54657723 466.24413589 -348.46484375 464.87890625 C-347.17513373 464.31179617 -345.88524915 463.74508295 -344.59521484 463.17871094 C-336.26731473 459.51859149 -327.95837459 455.81686957 -319.6567688 452.09754944 C-311.87869688 448.61345164 -304.08899188 445.15579667 -296.29855347 441.69946289 C-273.54357171 431.59986253 -250.82275546 421.43129784 -228.19326782 411.05331421 C-213.13438527 404.15104116 -198.00096932 397.4219437 -182.85491943 390.71365356 C-172.22564324 386.00370079 -161.62246159 381.23553505 -151.01660156 376.47314453 C-146.68921181 374.53075691 -142.36067473 372.59093775 -138.03196716 370.65148926 C-132.59281176 368.21447737 -127.15450918 365.77556772 -121.71630859 363.33642578 C-118.74385703 362.00397828 -115.77050353 360.67356815 -112.796875 359.34375 C-108.77594323 357.54404811 -104.75956619 355.73464849 -100.74804688 353.9140625 C-99.18017132 353.20322072 -97.61109288 352.49502794 -96.04101562 351.7890625 C-93.67796092 350.72407714 -91.32081957 349.64694565 -88.96484375 348.56640625 C-88.26391602 348.25276123 -87.56298828 347.93911621 -86.84082031 347.6159668 C-83.08389815 345.87487459 -79.83705206 344.34258274 -77.46484375 340.87890625 C-77.87257376 328.59807842 -90.49016379 312.96671863 -98.46484375 303.87890625 C-105.69260957 300.57927403 -111.29104896 301.85143695 -118.33203125 304.89453125 Z M-555.46484375 311.87890625 C-555.79484375 312.20890625 -556.12484375 312.53890625 -556.46484375 312.87890625 C-556.12019751 318.66456339 -554.32907372 322.62921372 -551.40234375 327.56640625 C-551.00112305 328.25976074 -550.59990234 328.95311523 -550.18652344 329.66748047 C-542.71562316 344.13292962 -542.71562316 344.13292962 -531.46484375 354.87890625 C-521.52574021 356.26483702 -512.79945159 352.52173802 -504.83984375 346.75390625 C-502.40777714 344.85545763 -501.22493453 343.51904243 -499.46484375 340.87890625 C-499.96113281 340.21246094 -500.45742188 339.54601562 -500.96875 338.859375 C-504.47315924 334.10481597 -507.85687497 329.34083616 -510.96484375 324.31640625 C-518.64983239 311.75108116 -518.64983239 311.75108116 -530.21875 303.15625 C-538.5820008 302.12357034 -548.64982724 307.329925 -555.46484375 311.87890625 Z M-371.46484375 326.06640625 C-372.150625 326.35837891 -372.83640625 326.65035156 -373.54296875 326.95117188 C-378.18779999 329.01209413 -381.69689503 331.47009014 -385.46484375 334.87890625 C-381.30740982 348.5860894 -371.14844222 364.21706133 -360.46484375 373.87890625 C-351.65286738 375.51208313 -341.685343 369.38697627 -334.46484375 364.87890625 C-331.90244408 363.10865538 -331.90244408 363.10865538 -330.46484375 360.87890625 C-330.42450651 356.15944886 -333.32667124 352.31219526 -335.77734375 348.44140625 C-336.21449707 347.74635986 -336.65165039 347.05131348 -337.10205078 346.33520508 C-345.64921125 332.97317929 -345.64921125 332.97317929 -357.46484375 322.87890625 C-362.7749998 322.13216556 -366.73687549 323.9201575 -371.46484375 326.06640625 Z M-608.77734375 328.56640625 C-609.8758667 328.96069824 -610.97438965 329.35499023 -612.10620117 329.76123047 C-614.54156467 330.63879966 -616.97481143 331.52225861 -619.40625 332.41064453 C-623.05333128 333.73815423 -626.71621198 335.01712562 -630.38264465 336.29005432 C-633.56825049 337.40076081 -636.74619568 338.53235785 -639.92294312 339.66812134 C-641.4832954 340.2220283 -643.04630951 340.76849738 -644.61196899 341.30722046 C-646.82790273 342.07233431 -649.03136103 342.86653129 -651.234375 343.66796875 C-652.22032654 343.99751808 -652.22032654 343.99751808 -653.22619629 344.33372498 C-657.65496759 345.99082959 -660.17244481 348.15135811 -662.65934753 352.05874634 C-663.9730383 355.02726093 -663.50612225 356.86399528 -662.46484375 359.87890625 C-661.04370133 362.94840698 -661.04370133 362.94840698 -659.18359375 366.01953125 C-658.68502869 366.87016144 -658.68502869 366.87016144 -658.1763916 367.73797607 C-657.47159246 368.93406482 -656.76198246 370.12733038 -656.04785156 371.31787109 C-654.98113663 373.10166085 -653.93706576 374.89731103 -652.89453125 376.6953125 C-646.41801323 387.81379989 -646.41801323 387.81379989 -637.46484375 396.87890625 C-633.79288918 397.22384744 -632.7160305 397.09976307 -629.46484375 395.87890625 C-628.64467773 395.62415527 -627.82451172 395.3694043 -626.97949219 395.10693359 C-624.06760967 394.16935989 -621.20772344 393.13085904 -618.33984375 392.06640625 C-617.2725 391.67549805 -616.20515625 391.28458984 -615.10546875 390.88183594 C-606.17987065 387.58090354 -597.31250329 384.13236674 -588.46484375 380.62890625 C-587.8293158 380.37910004 -587.19378784 380.12929382 -586.53900146 379.87191772 C-575.45823852 375.89629098 -575.45823852 375.89629098 -565.46484375 369.87890625 C-564.04756587 366.36126902 -564.24475196 364.67057971 -565.25 361.0546875 C-570.96938661 348.23416644 -577.15516432 336.59946114 -587.46484375 326.87890625 C-588.45484375 325.88890625 -588.45484375 325.88890625 -589.46484375 324.87890625 C-596.55038059 324.14201042 -602.17260029 326.15132703 -608.77734375 328.56640625 Z M-444.87890625 357.57421875 C-445.82515286 361.29612207 -443.93281655 364.0300133 -442.21484375 367.25390625 C-441.85003906 367.95781494 -441.48523438 368.66172363 -441.109375 369.38696289 C-437.2039832 376.71039436 -432.53938365 383.32902089 -427.46484375 389.87890625 C-426.76101563 390.83796875 -426.0571875 391.79703125 -425.33203125 392.78515625 C-423.49598865 395.11801038 -421.81913545 397.07346783 -419.46484375 398.87890625 C-415.8436974 399.24715842 -414.72987797 399.06569423 -411.46484375 397.87890625 C-410.43746094 397.54761719 -409.41007812 397.21632813 -408.3515625 396.875 C-401.52745239 394.49010339 -395.90182569 391.6588511 -390.46484375 386.87890625 C-392.40549415 371.89882959 -405.00274888 359.20551308 -415.04296875 348.609375 C-422.96934272 342.94585295 -439.19196441 350.75617246 -444.87890625 357.57421875 Z M-505.46484375 380.75390625 C-506.73735919 382.88883697 -506.73735919 382.88883697 -505.87890625 385.40625 C-503.97469728 390.08260848 -501.46360879 394.26138196 -498.83984375 398.56640625 C-498.30367432 399.45183105 -497.76750488 400.33725586 -497.21508789 401.24951172 C-490.68966327 412.7794847 -490.68966327 412.7794847 -481.46484375 421.87890625 C-471.48328865 422.98796793 -462.31987016 418.92123426 -454.46484375 412.87890625 C-453.50578125 412.19828125 -453.50578125 412.19828125 -452.52734375 411.50390625 C-451.17896223 409.80932428 -451.17896223 409.80932428 -451.72265625 407.08203125 C-454.62157759 394.57089705 -468.05182219 379.34900774 -477.55078125 370.84765625 C-486.23699278 366.4513696 -499.15483067 374.83826899 -505.46484375 380.75390625 Z M-556.4609375 397.8046875 C-557.52611099 398.22630661 -558.59128448 398.64792572 -559.68873596 399.08232117 C-563.0995279 400.43689855 -566.50075264 401.81391039 -569.90234375 403.19140625 C-572.12377341 404.07631597 -574.34577445 404.95979278 -576.56835938 405.84179688 C-587.66487646 410.25955743 -598.71810964 414.78279331 -609.75 419.359375 C-610.74172714 419.76980545 -611.73345428 420.1802359 -612.75523376 420.60310364 C-620.64459503 423.4028028 -620.64459503 423.4028028 -627.46484375 427.87890625 C-628.36458825 440.17100384 -620.08407037 450.29091404 -613.33984375 460.00390625 C-612.60459473 461.06919556 -612.60459473 461.06919556 -611.85449219 462.15600586 C-608.8008598 466.42955928 -605.93072386 470.04937916 -601.46484375 472.87890625 C-594.07409249 472.33413477 -587.54509717 469.49268572 -580.71484375 466.81640625 C-580.05076508 466.55857361 -579.3866864 466.30074097 -578.70248413 466.03509521 C-542.08434964 453.8187591 -542.08434964 453.8187591 -511.46484375 432.87890625 C-514.99960904 423.53702656 -520.61656518 415.41738558 -526.52734375 407.44140625 C-527.02153809 406.76746826 -527.51573242 406.09353027 -528.02490234 405.39916992 C-531.76311767 400.44767418 -535.29382416 395.80346486 -541.46923828 394.00292969 C-547.09288185 393.82837201 -551.30834504 395.69434591 -556.4609375 397.8046875 Z M-461.375 449.12890625 C-462.74898476 450.9841167 -462.74898476 450.9841167 -462.421875 454.05078125 C-461.28785522 458.58686035 -459.48908854 462.11024085 -457.15234375 466.12890625 C-456.71446533 466.8974292 -456.27658691 467.66595215 -455.82543945 468.45776367 C-452.38207829 474.43789328 -448.80028805 480.33419169 -445.15234375 486.19140625 C-444.66145264 486.98514648 -444.17056152 487.77888672 -443.66479492 488.59667969 C-439.11873879 496.06489101 -439.11873879 496.06489101 -432.04296875 500.79296875 C-422.58105962 501.10836572 -411.75437923 495.75991455 -404.83984375 489.50390625 C-402.94332289 485.88327552 -403.65169952 483.8450587 -404.46484375 479.87890625 C-409.77935264 466.40879882 -419.15903082 449.09823868 -430.46484375 439.87890625 C-440.39169341 436.20229527 -453.19366888 443.77506994 -461.375 449.12890625 Z M-525.46484375 476.87890625 C-526.87029974 480.27444067 -526.5330694 481.69675459 -525.234375 485.1640625 C-524.59890839 486.43177859 -523.94519918 487.69045021 -523.27734375 488.94140625 C-522.92293213 489.62533447 -522.56852051 490.3092627 -522.20336914 491.01391602 C-519.1095729 496.8797432 -515.78460237 502.61314668 -512.40234375 508.31640625 C-511.92063721 509.13181885 -511.43893066 509.94723145 -510.94262695 510.78735352 C-504.54593766 522.37757546 -504.54593766 522.37757546 -494.46484375 529.87890625 C-491.65116589 529.247202 -489.4542241 528.55212932 -486.83984375 527.44140625 C-486.13778809 527.15934326 -485.43573242 526.87728027 -484.71240234 526.58666992 C-473.77587408 522.46567705 -473.77587408 522.46567705 -465.46484375 514.87890625 C-465.65062895 508.69380734 -468.06544788 504.11678855 -470.96484375 498.81640625 C-471.41190674 497.98584717 -471.85896973 497.15528809 -472.31958008 496.29956055 C-481.09169596 478.1210865 -481.09169596 478.1210865 -495.46484375 465.87890625 C-505.48489213 465.27818392 -518.31735035 469.50084854 -525.46484375 476.87890625 Z M-590.46484375 503.87890625 C-591.71734909 514.90095322 -584.1753562 525.7289736 -579.08984375 535.06640625 C-578.55101562 536.08154297 -578.0121875 537.09667969 -577.45703125 538.14257812 C-573.56110561 545.33612655 -569.27541663 552.06833337 -563.46484375 557.87890625 C-553.28859931 559.12364001 -542.73479262 552.64021508 -534.04296875 548.0859375 C-531.19524406 546.04267518 -531.19524406 546.04267518 -530.42578125 542.5703125 C-530.46931116 538.4567359 -531.36414433 535.47203269 -533.08984375 531.81640625 C-533.54822632 530.81395874 -533.54822632 530.81395874 -534.01586914 529.79125977 C-537.00707838 523.4698233 -540.41526708 517.37506294 -543.90234375 511.31640625 C-544.42715332 510.38884521 -544.95196289 509.46128418 -545.49267578 508.50561523 C-549.00236322 502.5731356 -553.52954167 495.1752939 -560.62670898 493.31103516 C-570.77173131 492.36983547 -582.11023455 498.68490318 -590.46484375 503.87890625 Z " fill="#000000" transform="translate(821.46484375,46.12109375)"/>
</svg>
